# xmcd
#
# Track frame offsets:
#	150
#	15087
#	27596
#	42302
#	58847
#	79875
#	94135
#	107313
#	122051
#	134878
#	147146
#	162438
#	176790
#	187994
#
# Disc length: 2774 seconds
#
# Revision: 1
# Processed by: cddbd v1.5.2PL0 Copyright (c) Steve Scherf et al.
# Submitted via: audiograbber 1.83.01
#
DISCID=be0ad40e
DTITLE=Shannon And Heather Slaughter and County Clare - One More Road
DYEAR=2013
DGENRE=Bluegrass
TTITLE0=If I Were A Carpenter
TTITLE1=I Might Be
TTITLE2=The Lives Of The Innocent
TTITLE3=They Never Got The Chance
TTITLE4=When Scruggs Made Me A Star
TTITLE5=One More Road
TTITLE6=Daddy Killed The Calf
TTITLE7=You Ain't Going Nowhere
TTITLE8=The Ballad Of Johnse Hatfield
TTITLE9=The Greater God's Love Will Shine
TTITLE10=It's In My Mind To Wander
TTITLE11=Pass Me By
TTITLE12=Even Cowgirls Get The Blues
TTITLE13=Never Let It Slip
EXTD=
EXTT0=
EXTT1=
EXTT2=
EXTT3=
EXTT4=
EXTT5=
EXTT6=
EXTT7=
EXTT8=
EXTT9=
EXTT10=
EXTT11=
EXTT12=
EXTT13=
PLAYORDER=
